<?xml version="1.0" encoding="utf-8"?>
<!-- Generator: Adobe Illustrator 24.0.1, SVG Export Plug-In . SVG Version: 6.00 Build 0)  -->
<svg version="1.1" id="Ebene_1" xmlns="http://www.w3.org/2000/svg" xmlns:xlink="http://www.w3.org/1999/xlink" x="0px" y="0px"
	 viewBox="0 0 233.79 282.32" style="enable-background:new 0 0 233.79 282.32;" xml:space="preserve">
<style type="text/css">
	.st0{fill:#FFFFFF;}
	.st1{clip-path:url(#SVGID_2_);}
	.st2{clip-path:url(#SVGID_4_);}
	.st3{clip-path:url(#SVGID_6_);}
	.st4{clip-path:url(#SVGID_8_);}
	.st5{clip-path:url(#SVGID_10_);}
	.st6{fill:#E4002B;}
	.st7{clip-path:url(#SVGID_12_);}
	.st8{clip-path:url(#SVGID_14_);}
	.st9{clip-path:url(#SVGID_16_);}
	.st10{clip-path:url(#SVGID_18_);}
	.st11{clip-path:url(#SVGID_20_);}
	.st12{clip-path:url(#SVGID_22_);}
	.st13{clip-path:url(#SVGID_24_);}
	.st14{clip-path:url(#SVGID_26_);}
	.st15{clip-path:url(#SVGID_28_);}
	.st16{clip-path:url(#SVGID_30_);}
	.st17{clip-path:url(#SVGID_32_);}
	.st18{clip-path:url(#SVGID_34_);}
	.st19{clip-path:url(#SVGID_36_);}
	.st20{clip-path:url(#SVGID_38_);}
	.st21{clip-path:url(#SVGID_40_);}
	.st22{clip-path:url(#SVGID_42_);}
	.st23{clip-path:url(#SVGID_44_);}
	.st24{clip-path:url(#SVGID_46_);}
	.st25{clip-path:url(#SVGID_48_);}
</style>
<g>
	<g>
		<defs>
			
				<ellipse id="SVGID_5_" transform="matrix(0.8463 -0.5328 0.5328 0.8463 -39.4027 77.4455)" cx="114.49" cy="107" rx="119.12" ry="101.78"/>
		</defs>
		<clipPath id="SVGID_2_">
			<use xlink:href="#SVGID_5_"  style="overflow:visible;"/>
		</clipPath>
		<g class="st1">
			<polygon class="st0" points="-43.97,128.99 -43.85,129.12 172.15,-81.41 166.55,-87 			"/>
			<polygon class="st0" points="-32.32,140.64 183.67,-69.88 178.08,-75.48 -32.45,140.51 			"/>
			<polygon class="st0" points="-20.8,152.17 195.19,-58.36 189.6,-63.95 -20.93,152.04 			"/>
			<polygon class="st0" points="-9.28,163.69 206.71,-46.84 201.12,-52.43 -9.41,163.56 			"/>
			<polygon class="st0" points="2.25,175.21 218.24,-35.31 212.64,-40.91 2.12,175.08 			"/>
			<polygon class="st0" points="13.77,186.73 229.76,-23.79 224.17,-29.39 13.64,186.61 			"/>
			<polygon class="st0" points="25.29,198.26 241.28,-12.27 235.69,-17.86 25.16,198.13 			"/>
			<polygon class="st0" points="36.81,209.78 252.8,-0.75 247.21,-6.34 36.68,209.65 			"/>
		</g>
	</g>
	<g>
		<defs>
			
				<ellipse id="SVGID_7_" transform="matrix(0.8463 -0.5328 0.5328 0.8463 -75.064 90.5141)" cx="119.3" cy="175.32" rx="119.12" ry="101.78"/>
		</defs>
		<clipPath id="SVGID_4_">
			<use xlink:href="#SVGID_7_"  style="overflow:visible;"/>
		</clipPath>
		<g class="st2">
			<polygon class="st0" points="277.77,153.33 277.64,153.2 61.65,363.72 67.24,369.32 			"/>
			<polygon class="st0" points="266.12,141.68 50.13,352.2 55.72,357.8 266.25,141.8 			"/>
			<polygon class="st0" points="254.59,130.15 38.6,340.68 44.2,346.27 254.72,130.28 			"/>
			<polygon class="st0" points="243.07,118.63 27.08,329.16 32.67,334.75 243.2,118.76 			"/>
			<polygon class="st0" points="231.55,107.11 15.56,317.63 21.15,323.23 231.68,107.24 			"/>
			<polygon class="st0" points="220.03,95.58 4.04,306.11 9.63,311.7 220.16,95.71 			"/>
			<polygon class="st0" points="208.5,84.06 -7.49,294.59 -1.89,300.18 208.63,84.19 			"/>
			<polygon class="st0" points="196.98,72.54 -19.01,283.07 -13.42,288.66 197.11,72.67 			"/>
		</g>
	</g>
</g>
</svg>
