<?xml version="1.0" encoding="utf-8"?>
<!-- Generator: Adobe Illustrator 24.0.1, SVG Export Plug-In . SVG Version: 6.00 Build 0)  -->
<svg version="1.1" id="Ebene_1" xmlns="http://www.w3.org/2000/svg" xmlns:xlink="http://www.w3.org/1999/xlink" x="0px" y="0px"
	 viewBox="0 0 566.93 138.36" style="enable-background:new 0 0 566.93 138.36;" xml:space="preserve">
<style type="text/css">
	.st0{fill:#FFFFFF;}
	.st1{clip-path:url(#SVGID_2_);}
	.st2{clip-path:url(#SVGID_4_);}
	.st3{clip-path:url(#SVGID_6_);}
	.st4{clip-path:url(#SVGID_8_);}
	.st5{clip-path:url(#SVGID_10_);}
	.st6{fill:#E4002B;}
	.st7{clip-path:url(#SVGID_12_);}
	.st8{clip-path:url(#SVGID_14_);}
	.st9{clip-path:url(#SVGID_16_);}
	.st10{clip-path:url(#SVGID_18_);}
	.st11{clip-path:url(#SVGID_20_);}
	.st12{clip-path:url(#SVGID_22_);}
	.st13{clip-path:url(#SVGID_24_);}
	.st14{clip-path:url(#SVGID_26_);}
	.st15{clip-path:url(#SVGID_28_);}
	.st16{clip-path:url(#SVGID_30_);}
	.st17{clip-path:url(#SVGID_32_);}
	.st18{clip-path:url(#SVGID_34_);}
	.st19{clip-path:url(#SVGID_36_);}
	.st20{clip-path:url(#SVGID_38_);}
	.st21{clip-path:url(#SVGID_40_);}
	.st22{clip-path:url(#SVGID_42_);}
	.st23{clip-path:url(#SVGID_44_);}
	.st24{clip-path:url(#SVGID_46_);}
	.st25{clip-path:url(#SVGID_48_);}
</style>
<g>
	<path class="st0" d="M165.91,79.55h12.14c0.41,4.9,5.15,8.4,12.25,8.4c6.28,0,10.7-2.3,10.7-6.2c0-4.8-4.32-5.3-12.56-6.3
		c-11.94-1.4-21.51-3.9-21.51-14.49c0-10,9.06-16.49,22.02-16.39c13.48,0.1,22.85,6,23.57,16.49h-12.25
		c-0.41-4.2-4.84-7.3-11.01-7.3c-5.97,0-9.98,2.3-9.98,6.1c0,4.3,4.73,4.7,12.25,5.5c11.94,1.3,21.92,4,21.92,15.49
		c0,10-9.67,16.29-23.05,16.29C176.1,97.14,166.32,90.64,165.91,79.55z"/>
	<path class="st0" d="M217.98,45.26h11.11l1.34,6.6c3.09-3.9,7.61-7.1,15.54-7.2c6.69,0,12.76,2.5,15.95,9c3.7-5.5,9.88-9,18.21-9
		c10.29,0,19.45,5.6,19.45,23.29v28.59h-12.76V67.75c0-8.3-3.4-12.7-10.19-12.7c-6.89,0-11.42,5.1-11.42,13.6v27.89h-12.86V67.75
		c0-8.3-3.4-12.7-10.19-12.7c-7,0-11.42,5.4-11.42,13.8v27.69h-12.76V45.26z"/>
	<path class="st0" d="M302.98,82.05c0-10.7,8.13-16.69,23.46-16.69h11.83v-2.8c0-5.2-4.01-8.4-10.7-8.4c-5.97,0-10.08,2.7-10.81,6.9
		h-12.35c1.03-10.5,10.08-16.39,23.67-16.39c14.41,0,22.85,6.5,22.85,18.59v33.29h-11.22l-1.03-6.9c-3.7,4.5-8.64,7.5-16.46,7.5
		C310.7,97.14,302.98,91.64,302.98,82.05z M338.28,75.45v-1.4h-12.25c-6.38,0-10.09,2.4-10.09,7.2c0,4,3.29,6.6,8.75,6.6
		C333.23,87.84,338.17,82.95,338.28,75.45z"/>
	<path class="st0" d="M356.39,45.26h11.53l1.23,7.7c2.78-4.4,7-7.7,15.44-7.7h2.47v11.4h-5.35c-9.26,0-12.55,6.6-12.55,14.39v25.49
		h-12.76V45.26z"/>
	<path class="st0" d="M390.76,82.25V30.96h12.76v14.3h12.45v10.7h-12.45v24.59c0,3.8,1.54,5.3,5.35,5.3h7.92v10.7h-11.32
		C395.39,96.54,390.76,91.84,390.76,82.25z"/>
	<path class="st0" d="M417.1,70.85c0-15.8,10.6-26.19,26.86-26.19c13.79,0,22.74,7.4,24.8,19.29h-13.17c-1.34-5.4-5.66-9-11.83-9
		c-8.23,0-13.58,6.5-13.58,15.89c0,9.4,5.35,15.99,13.58,15.99c6.38,0,10.7-3.6,11.94-9.2h13.07c-2.06,12-11.01,19.49-25.01,19.49
		C427.59,97.14,417.1,86.65,417.1,70.85z"/>
	<path class="st0" d="M472.98,26.57h12.76v69.97h-12.76V26.57z"/>
	<path class="st0" d="M491.81,31.47c0-4.1,3.19-7.1,7.51-7.1c4.32,0,7.61,3,7.61,7.1c0,4.2-3.29,7.3-7.61,7.3
		C495,38.76,491.81,35.66,491.81,31.47z M492.94,45.26h12.76v51.28h-12.76V45.26z"/>
	<path class="st0" d="M512.9,45.26h11.11l1.44,7.4c3.4-4.5,8.85-8,16.67-8c14.41,0,24.8,10,24.8,26.29
		c0,15.89-10.39,26.19-24.7,26.19c-7.72,0-13.17-3.1-16.57-7.5v26.89H512.9V45.26z M553.96,70.85c0-9.4-5.66-15.89-14.3-15.89
		c-8.64,0-14.1,6.5-14.1,15.79c0,9.5,5.45,16.09,14.1,16.09C548.3,86.85,553.96,80.25,553.96,70.85z"/>
	<g>
		<g>
			<defs>
				
					<ellipse id="SVGID_1_" transform="matrix(0.8463 -0.5328 0.5328 0.8463 -19.3104 37.9543)" cx="56.11" cy="52.44" rx="58.38" ry="49.88"/>
			</defs>
			<clipPath id="SVGID_2_">
				<use xlink:href="#SVGID_1_"  style="overflow:visible;"/>
			</clipPath>
			<g class="st1">
				<polygon class="st0" points="-21.55,63.22 -21.49,63.28 84.36,-39.9 81.62,-42.64 				"/>
				<polygon class="st0" points="-15.84,68.93 90.01,-34.25 87.27,-36.99 -15.9,68.86 				"/>
				<polygon class="st0" points="-10.19,74.57 95.66,-28.6 92.92,-31.34 -10.26,74.51 				"/>
				<polygon class="st0" points="-4.55,80.22 101.31,-22.95 98.56,-25.7 -4.61,80.16 				"/>
				<polygon class="st0" points="1.1,85.87 106.95,-17.31 104.21,-20.05 1.04,85.8 				"/>
				<polygon class="st0" points="6.75,91.51 112.6,-11.66 109.86,-14.4 6.68,91.45 				"/>
				<polygon class="st0" points="12.39,97.16 118.25,-6.01 115.51,-8.75 12.33,97.1 				"/>
				<polygon class="st0" points="18.04,102.81 123.89,-0.37 121.15,-3.11 17.98,102.74 				"/>
			</g>
		</g>
		<g>
			<defs>
				
					<ellipse id="SVGID_3_" transform="matrix(0.8463 -0.5328 0.5328 0.8463 -36.7871 44.3589)" cx="58.47" cy="85.92" rx="58.38" ry="49.88"/>
			</defs>
			<clipPath id="SVGID_4_">
				<use xlink:href="#SVGID_3_"  style="overflow:visible;"/>
			</clipPath>
			<g class="st2">
				<polygon class="st0" points="136.13,75.14 136.06,75.08 30.21,178.25 32.95,180.99 				"/>
				<polygon class="st0" points="130.42,69.43 24.57,172.61 27.31,175.35 130.48,69.5 				"/>
				<polygon class="st0" points="124.77,63.78 18.92,166.96 21.66,169.7 124.83,63.85 				"/>
				<polygon class="st0" points="119.12,58.14 13.27,161.31 16.01,164.05 119.19,58.2 				"/>
				<polygon class="st0" points="113.48,52.49 7.62,155.67 10.37,158.41 113.54,52.55 				"/>
				<polygon class="st0" points="107.83,46.84 1.98,150.02 4.72,152.76 107.89,46.91 				"/>
				<polygon class="st0" points="102.18,41.2 -3.67,144.37 -0.93,147.11 102.25,41.26 				"/>
				<polygon class="st0" points="96.54,35.55 -9.32,138.72 -6.58,141.47 96.6,35.61 				"/>
			</g>
		</g>
	</g>
</g>
</svg>
